<svg width="71" height="71" viewBox="0 0 71 71" fill="none" xmlns="http://www.w3.org/2000/svg">
<path d="M20.6931 20.7271C19.5378 21.8824 19.5378 23.7555 20.6931 24.9108L31.2992 35.5168L20.6931 46.123C19.5378 47.2782 19.5378 49.1514 20.6931 50.3067C21.8484 51.4619 23.7216 51.4619 24.8769 50.3067L35.4829 39.7005L46.0891 50.3067C47.2443 51.4619 49.1175 51.4619 50.2728 50.3067C51.428 49.1514 51.428 47.2782 50.2728 46.123L39.6665 35.5168L50.2728 24.9108C51.428 23.7555 51.428 21.8824 50.2728 20.7271C49.1172 19.5718 47.2443 19.5718 46.0891 20.7271L35.4829 31.3331L24.8769 20.7271C23.7216 19.5718 21.8484 19.5718 20.6931 20.7271Z" fill="#0F0F0F"/>
</svg>
