<svg width="857" height="663" viewBox="0 0 857 663" fill="none" xmlns="http://www.w3.org/2000/svg">
<path fill-rule="evenodd" clip-rule="evenodd" d="M237.353 149.995C240.156 149.714 247.537 144.103 243.706 141.205C239.782 138.212 236.979 147.937 237.353 149.995ZM88.9774 171.783C89.7249 171.69 89.3511 167.575 88.2299 167.014C84.4925 165.331 84.2122 171.503 84.1188 173.186C84.0253 175.243 83.745 181.135 88.2299 179.545C90.8461 178.703 89.2577 173.373 88.9774 171.783ZM307.429 190.86C307.336 194.507 314.717 201.521 317.427 197.313C319.669 193.759 307.616 183.566 307.429 190.86ZM47.679 108.755C49.828 114.179 60.2928 106.792 60.76 102.77C61.5074 94.6348 47.5856 103.332 47.679 108.755ZM135.508 132.227C140.367 131.853 146.907 125.588 151.579 123.25C154.756 121.66 163.445 119.79 164.473 116.236C165.314 113.15 150.551 119.79 149.243 120.351C143.45 123.063 138.218 126.149 135.508 132.227ZM503.55 89.211C507.423 86.1041 512.228 84.3914 517.191 84.3483C519.714 84.4418 524.946 85.938 525.133 81.6364C525.413 74.6228 503.363 83.2261 499.906 84.5353C501.12 86.125 502.335 87.6212 503.55 89.211ZM259.777 363.58C256.881 358.811 251.742 356.099 247.911 351.984C249.312 358.624 246.135 364.609 243.893 370.687C249.125 368.256 254.451 365.918 259.777 363.58ZM757.6 465.136C759.188 459.805 760.777 454.569 762.646 449.332C764.701 443.534 765.729 442.973 760.777 438.952L748.443 462.237C751.364 463.58 754.439 464.553 757.6 465.136ZM332.657 82.0104C327.237 75.8385 301.729 75.4645 304.906 89.0239C306.027 93.7931 312.288 88.7434 316.212 87.6212C320.043 86.5926 331.068 86.4056 332.657 82.0104ZM331.722 168.885C331.068 167.295 329.76 161.684 327.798 161.216C325.929 160.749 318.361 166.734 316.959 167.575C309.952 172.064 303.038 176.927 296.217 181.696C298.833 181.696 301.262 180.761 303.878 180.761C306.962 180.761 309.204 181.976 312.194 181.322C318.641 179.732 326.209 172.532 331.722 168.885ZM338.73 28.8947C339.384 26.0893 371.152 34.5055 374.983 36.0952C377.038 36.9369 387.783 42.5477 385.541 34.1315C384.233 29.3623 371.806 25.6217 367.788 24.3125C357.697 20.946 346.952 18.6082 336.207 19.1693C334.151 19.2628 318.268 20.1979 324.901 26.5569C327.144 28.7077 335.366 28.0531 338.73 28.8947ZM345.737 414.358C351.717 417.257 357.697 419.501 363.957 421.839C366.667 422.867 370.965 425.486 374.048 424.831C376.571 424.27 377.319 420.53 378.627 417.911C383.284 408.976 389.2 400.756 396.193 393.504C392.922 391.073 376.197 401.733 372.086 403.23C367.975 404.819 364.051 406.409 360.033 408.279C356.202 409.963 348.634 411.552 345.737 414.358ZM450.759 335.152C459.448 331.224 467.577 324.304 474.678 318.039C482.807 310.932 490.095 303.451 496.075 294.193C492.524 294.38 484.582 305.882 484.489 293.351C484.489 286.899 493.272 280.633 495.981 274.648C489.161 270.814 482.994 293.725 475.239 288.208C467.764 282.878 479.537 264.455 481.873 258.658C477.481 255.759 452.441 288.488 448.797 292.697C446.554 295.315 441.135 298.775 439.92 301.861C439.173 303.638 439.079 309.435 439.453 311.119C440.201 314.579 444.125 318.787 445.807 322.06C448.058 326.172 449.725 330.578 450.759 335.152ZM808.335 453.259C800.861 442.692 808.616 438.11 814.689 429.32C819.657 422.294 823.825 414.735 827.116 406.783C834.871 387.145 841.785 369.004 845.616 348.244C840.384 350.675 837.113 359.746 834.497 364.515C830.947 370.967 827.863 377.7 823.939 383.966C816.651 395.655 809.363 408.186 800.113 418.285C795.909 422.867 792.265 428.011 787.406 432.219C785.163 434.089 780.959 435.679 779.277 438.017C777.689 440.261 779.464 441.664 778.903 444.376C778.343 447.087 775.54 449.986 774.325 452.698C772.737 456.158 771.335 459.618 769.56 462.985C767.966 465.837 766.979 468.99 766.663 472.243C766.103 476.17 767.785 476.638 764.421 480.191C770.681 482.903 776.941 485.709 783.108 488.421C785.257 489.356 787.312 490.291 789.461 491.226C789.929 490.384 790.396 489.543 790.77 488.701C792.451 487.018 794.04 482.903 795.068 480.752C799.085 471.588 803.664 462.424 808.335 453.259ZM205.865 408.934C188.112 455.597 250.433 494.873 288.742 503.57C294.068 504.785 299.207 506.375 304.533 507.684C310.325 509.087 315.371 508.806 321.164 509.367C325.742 509.835 327.891 513.389 332.189 514.324C339.384 515.913 338.917 510.49 339.477 504.692C341.626 480.098 354.24 456.345 367.508 435.772C361.435 433.622 355.455 431.19 349.475 428.852C344.336 426.795 336.487 421.091 330.975 420.81C326.864 420.623 320.697 424.083 316.773 425.579C310.204 428.108 303.497 430.263 296.684 432.032C284.631 435.024 271.27 439.232 258.843 439.513C255.292 439.606 245.388 441.29 242.865 439.045C237.913 434.837 244.734 431.284 248.845 429.788C273.419 420.81 299.487 416.976 324.06 407.718C336.768 402.949 349.288 397.712 361.995 393.037C373.021 389.016 384.513 385.462 395.071 380.506C409.087 373.96 423.195 365.824 435.342 356.192C437.771 354.229 442.817 351.423 444.499 348.618C445.993 346.186 445.807 348.618 445.433 345.625C445.246 343.474 442.63 340.576 441.509 338.612C437.449 331.126 433.891 323.378 430.857 315.42C411.516 323.743 393.109 335.058 373.955 343.942C354.707 352.919 333.124 359.185 312.568 364.234C303.785 366.385 293.787 367.04 285.752 371.248C282.388 373.025 278.931 375.082 275.287 376.204C274.166 378.261 273.138 378.636 272.111 377.42C271.802 377.065 271.409 376.793 270.969 376.63C270.528 376.466 270.053 376.416 269.588 376.485C267.306 377.007 265.084 377.759 262.954 378.729C252.396 382.844 242.305 387.987 232.214 393.224C227.448 395.749 222.59 398.18 218.011 400.985C215.602 402.428 213.375 404.154 211.378 406.129C209.135 408.653 209.696 410.711 205.865 408.934ZM604.553 131.76C609.038 131.853 613.149 129.422 617.821 129.515C625.202 129.702 630.995 135.407 635.2 140.924C643.609 151.772 641.46 164.863 637.255 177.114C635.242 182.952 632.445 188.489 628.94 193.572C625.856 198.061 620.344 202.362 618.195 207.319C614.644 215.548 621.839 212.088 626.137 210.311C631.64 208.174 636.802 205.244 641.46 201.614C662.296 185.062 678.087 161.965 683.412 135.5C686.029 122.595 685.842 107.446 676.779 96.8791C668.556 87.2472 654.354 84.0677 642.207 85.8445C629.127 87.8083 617.167 93.3256 606.515 100.526C603.432 102.583 600.535 104.921 597.639 107.166C593.808 110.252 591.566 110.252 592.5 115.114C593.247 118.668 595.116 122.315 596.424 125.775C598.854 132.227 598.013 133.817 604.553 131.76ZM618.755 241.919L617.821 243.508C624.081 243.789 629.874 238.272 635.2 235.56C642.114 232.1 648.281 227.331 654.261 222.468C664.912 213.958 675.751 204.42 683.693 193.198C701.539 168.23 717.703 136.435 712.845 104.734C707.612 70.6018 677.713 57.4163 645.945 61.905C631.556 63.9623 618.755 70.3212 605.955 76.8672C599.508 80.1402 593.995 84.4418 588.109 88.5564C585.025 90.7072 582.222 90.9877 582.035 94.7283C581.848 97.5337 586.707 103.893 588.109 106.511C604.179 90.0526 621.558 76.3996 645.945 75.558C674.91 74.5293 692.008 102.022 691.915 128.393C691.822 154.203 680.703 178.984 662.95 197.593C654.915 206.009 647.253 212.742 637.349 218.914C632.397 222 628.753 224.712 623.24 226.769C619.316 228.172 619.783 227.424 618.755 231.071C617.914 234.064 618.755 238.739 618.755 241.919ZM461.41 592.501C460.966 597.134 460.185 601.728 459.074 606.248C458.701 607.837 456.552 612.981 456.925 614.851C457.579 617.843 456.739 615.973 459.355 617.469C462.158 619.153 465.335 619.059 468.325 619.527C470.193 619.807 477.014 623.08 478.229 622.519C480.284 621.584 480.191 618.498 482.34 617.282C485.33 615.599 489.815 617.002 492.618 618.404C500.186 621.958 505.418 629.252 512.8 633.273C525.881 640.38 541.297 644.308 555.873 645.991C563.722 646.833 571.851 648.422 579.606 646.552C585.773 645.056 593.715 645.243 597.078 638.603C567.459 630.468 522.237 620.462 510.557 586.423C504.204 592.221 493.552 589.135 485.89 588.293C477.388 587.451 469.819 587.638 462.158 583.804C461.539 586.659 461.287 589.582 461.41 592.501ZM199.231 381.815C213.153 382.657 226.421 376.017 235.017 364.889C237.166 362.177 239.315 359.372 240.529 356.099C240.81 355.257 241.09 354.415 241.37 353.667C242.678 351.423 242.118 350.301 239.595 350.488C238.193 348.524 234.643 347.87 235.671 344.41C236.418 341.791 239.221 341.698 241.744 340.856C240.749 339.057 239.489 337.417 238.007 335.993C233.428 340.108 225.206 348.057 222.029 338.705C220.534 334.217 223.15 329.915 222.496 325.52C222.216 323.743 219.974 319.161 218.666 318.039C211.658 312.334 201.473 314.672 194.092 318.039C188.953 320.377 187.832 321.499 186.991 326.736C186.15 332.159 185.309 337.583 184.375 343.007C187.458 341.417 188.019 337.957 190.074 335.432C190.822 336.835 191.569 338.144 192.317 339.547C192.768 339.263 193.293 339.12 193.826 339.137C194.359 339.154 194.874 339.329 195.307 339.64C196.802 341.885 195.867 345.345 195.4 347.683C200.352 347.215 202.501 352.732 197.456 354.977C192.317 357.314 189.981 350.956 189.794 346.841C187.832 349.179 185.87 347.87 184.562 349.085C183.254 350.301 182.693 352.732 182.226 355.444C181.478 359.933 179.423 366.292 181.291 370.78C183.908 377.513 192.691 380.973 199.231 381.815ZM603.245 168.604C598.667 175.056 590.725 183.473 589.136 191.234C594.182 188.242 604.927 173.934 607.73 185.343C609.318 191.889 601.189 199.744 599.134 206.103C607.169 203.485 612.869 195.162 617.821 188.803C624.175 180.667 630.715 169.913 632.303 159.627C632.629 157.64 632.545 155.608 632.054 153.656C631.563 151.704 630.677 149.873 629.451 148.278C628.225 146.682 626.684 145.355 624.925 144.38C623.165 143.405 621.224 142.801 619.222 142.607C614.759 142.342 610.281 142.784 605.955 143.916C603.992 144.384 601.096 144.945 599.414 145.974C597.265 147.283 596.985 150.369 594.929 147.75L586.8 163.18C589.51 162.152 595.023 158.037 598.013 158.411C602.311 159.066 603.152 165.425 603.245 168.604ZM171.294 43.0153C158.981 43.517 146.804 45.7845 135.134 49.7482C132.331 50.6834 120.278 54.0499 122.801 59.0061C124.483 62.2791 133.453 57.6969 136.162 56.8553C147.842 53.5823 159.801 51.4315 171.761 49.4677C174.658 49.0001 184.468 49.0001 184.935 45.2596C185.589 40.6774 174.658 43.0153 171.294 43.0153ZM500.466 571.18C494.001 571.882 487.474 571.787 481.032 570.899C475.519 570.245 469.913 568.001 464.4 568.001C464.4 573.892 464.027 573.892 470.193 575.201C474.491 576.043 478.883 576.604 483.274 577.165C490.936 578.287 499.532 581.279 507.38 579.69C507.194 578.661 506.633 571.741 505.792 571.086C505.325 570.712 501.12 571.18 500.466 571.18ZM394.511 135.594C396.379 136.716 400.584 141.392 402.733 141.485C401.985 136.061 395.912 126.71 388.998 129.983C387.316 130.825 383.766 134.846 385.354 136.622C386.195 137.745 392.268 135.594 394.511 135.594ZM330.601 183.66C330.694 182.725 330.694 181.789 330.788 180.854C328.265 182.351 325.088 183.099 323.313 185.436C325.462 186.372 327.611 187.4 329.76 188.335C330.04 186.746 330.321 185.156 330.601 183.66ZM530.179 326.923C542.138 331.131 553.164 336.741 561.947 346.28C569.608 354.509 573.159 369.004 575.028 379.758C579.606 406.409 570.73 431.19 564.937 456.719C561.947 469.718 557.555 482.155 553.351 494.779C549.707 505.814 546.623 517.316 541.578 527.79C537.373 536.674 531.954 545.464 528.216 554.628C526.161 559.584 522.984 576.604 515.322 571.273C513.267 576.697 512.706 576.23 514.949 580.064C516.537 582.776 522.05 586.61 524.573 588.854C531.487 594.839 540.176 599.702 548.212 603.816C562.974 611.484 578.765 617.095 593.995 624.109C600.722 627.195 608.01 630.842 606.515 639.632C605.972 643.13 604.58 646.442 602.463 649.279C600.346 652.115 597.567 654.39 594.369 655.903C588.108 658.989 579.232 661.327 572.318 662.356C568.207 662.917 567.272 661.234 564.002 660.672C560.265 660.018 555.967 661.327 552.136 661.234C535.037 661.047 519.994 656.745 506.166 646.833C501.214 643.279 493.926 633.647 487.479 633.647C484.208 633.647 484.863 635.704 481.966 636.827C478.416 638.323 472.155 635.517 468.698 634.863C461.223 633.46 453.562 632.057 448.516 625.605C443.097 618.591 445.059 609.895 447.395 602.133C450.011 593.343 454.403 584.459 456.271 575.575C456.863 572.81 456.99 569.966 456.645 567.159C455.898 563.699 452.441 561.735 452.347 557.995C452.347 556.872 453.935 555.376 454.216 554.254C454.87 551.729 454.776 549.017 454.963 546.492C455.43 541.817 456.458 537.422 457.206 532.839C458.888 522.459 462.158 513.108 465.335 503.102C468.418 493.377 471.314 486.083 477.294 477.666C480.378 473.271 490.656 457.748 485.61 453.259C478.789 466.725 470.754 477.292 460.196 488.046C452.16 496.276 444.312 507.31 434.221 513.202C423.195 519.654 409.647 523.395 397.407 526.855C391.614 528.444 386.756 532.091 380.495 532.746C373.66 533.354 366.77 532.784 360.126 531.063C358.258 530.595 352.839 527.79 351.157 527.977C348.634 528.257 345.083 532.652 342.374 533.494C335.74 535.458 331.162 531.717 326.116 528.164C320.603 524.33 319.015 523.395 312.661 522.927C304.906 522.366 297.338 519.654 289.77 517.971C276.409 515.072 265.009 509.087 252.769 502.822C238.848 495.715 226.888 485.802 216.33 474.113C200.819 457 179.329 409.495 204.557 392.85C189.701 390.792 176.059 384.34 174.284 367.507C173.349 358.717 175.125 348.898 177.367 340.388C178.395 336.461 179.61 332.627 180.731 328.793C181.569 327.508 182.053 326.024 182.132 324.491C182.693 322.527 181.852 321.499 179.796 321.499C175.872 316.917 172.976 312.896 172.135 306.35C171.854 304.292 171.668 301.113 173.163 299.336C173.793 298.61 174.648 298.117 175.592 297.933C177.928 298.027 178.582 296.905 177.554 294.567C178.675 291.2 176.993 288.488 181.198 287.086C182.506 287.366 183.908 287.647 185.216 288.021C186.898 288.769 188.019 288.208 188.579 286.338C192.504 284.748 190.728 282.504 196.054 284.467C199.358 285.705 202.331 287.689 204.744 290.265C207.734 288.395 200.913 276.519 200.726 272.778C200.165 263.894 203.903 256.6 208.668 249.306C217.918 235.092 230.906 222.935 243.613 211.994C268.093 190.954 293.787 171.035 321.351 154.296C309.952 146.348 296.684 144.197 283.136 147.938C270.616 151.304 260.525 157.476 249.032 162.9C238.38 167.856 227.075 169.913 223.711 156.354C219.88 141.111 232.027 135.407 242.959 128.58C240.249 126.523 231.279 128.019 227.916 128.206C220.347 128.767 213.153 130.45 205.865 131.947C202.314 132.695 199.138 132.508 195.68 133.256C190.542 134.285 185.122 135.5 179.89 136.996C167.246 140.521 155.233 146.012 144.291 153.268C134.948 159.533 128.501 168.51 121.026 176.646C112.43 185.998 104.301 195.162 91.5936 198.622C85.6137 200.212 78.6995 201.708 74.4949 196.378C70.5707 191.421 70.3838 185.53 70.4772 179.452C70.7575 166.079 77.2046 151.678 84.6794 140.83C92.8082 129.048 103.647 122.221 113.925 112.683C99.0684 113.712 84.6794 121.567 71.0378 126.99C68.1413 128.113 65.2448 129.422 62.3484 130.45C59.265 131.573 57.2094 130.918 54.3129 131.386C47.5856 132.601 41.7926 135.407 35.2521 130.918C22.8252 122.315 35.2521 104.921 43.8482 99.4975C55.6248 92.0532 68.038 85.6692 80.942 80.4207C73.8409 72.7526 79.9142 61.718 86.4547 56.2942C94.7704 49.3742 105.235 45.4466 115.233 41.7061C123.081 38.8071 130.836 36.0017 139.059 34.225C147.655 32.3547 157.746 29.5493 166.435 29.8298C174.658 30.1104 181.852 28.6142 190.168 28.4271C197.082 28.2401 203.996 28.4271 210.91 28.2401C229.504 27.7725 248.098 28.9882 266.318 30.3909C251.928 -11.6902 346.672 1.30819 366.947 6.82549C385.354 11.7817 406.377 17.5796 421.794 29.4558C428.316 34.5968 434.525 40.124 440.387 46.0077C448.983 54.6109 453.655 66.0196 458.233 77.1477C469.726 71.5369 480.658 65.365 493.272 62.5596C505.231 59.9412 517.471 56.2942 529.525 54.3304C538.681 52.8342 551.949 51.8055 559.611 58.258C567.926 65.2715 572.318 76.2126 577.27 85.5639C601.189 62.8401 627.912 46.1947 662.109 47.3169C695.559 48.439 717.516 77.2412 721.534 108.568C726.019 143.075 710.602 179.078 689.859 205.822C680.516 217.792 670.892 229.388 658.278 238.272C652.018 242.667 645.478 247.529 638.657 250.99C635.167 252.725 631.58 254.255 627.912 255.572C626.294 256.2 624.641 256.731 622.96 257.161C618.195 258.284 619.129 256.787 617.354 260.995C615.952 264.362 616.046 270.253 615.485 273.994C614.738 278.295 614.364 282.597 613.336 286.805C611.561 294.099 609.692 301.206 607.45 308.407C603.175 322.105 597.508 335.328 590.538 347.87C596.424 350.488 604.74 350.675 611.094 351.517C618.141 352.536 625.105 354.067 631.93 356.099C646.225 360.12 658.932 363.486 672.574 369.471C686.683 375.643 699.203 384.995 712.845 392.382C725.365 399.209 737.979 407.718 749.565 415.854C752.032 417.581 754.262 419.625 756.198 421.932C757.884 423.837 759.763 425.561 761.805 427.076C763.019 428.011 766.57 432.967 767.878 433.154C770.307 433.528 769.933 431.658 771.896 429.039C775.913 423.616 781.613 419.501 785.631 413.984C788.894 409.384 792.387 404.952 796.095 400.705C804.706 391.074 812.111 380.429 818.146 369.004C821.323 363.019 824.78 357.314 828.237 351.704C831.694 346.093 837.861 338.705 844.775 338.986C844.215 336.087 842.439 335.619 845.523 333.936C847.485 332.814 851.316 334.591 852.811 335.806C856.828 338.799 857.015 344.69 856.735 349.179C855.993 360.526 853.859 371.738 850.381 382.563C846.364 395.468 841.411 406.97 835.899 419.314C831.507 429.133 826.182 442.131 815.343 446.713C822.631 457.093 819.08 465.51 814.222 476.544C810.671 484.586 805.999 492.909 798.898 498.239C790.863 504.224 782.174 499.175 773.764 495.153C768.719 492.722 753.115 487.111 756.292 479.724C752.368 479.163 749.938 476.357 746.481 475.516C742.744 474.58 743.398 476.077 739.38 476.731C736.39 477.199 731.812 474.487 728.915 473.458C724.15 471.869 719.385 470.185 714.62 468.502C701.165 463.92 687.991 459.338 674.443 455.597C649.215 448.677 623.707 444.75 598.573 438.671C593.528 437.456 588.576 436.24 583.25 435.305C582.129 435.118 576.523 434.744 575.868 433.622C574.654 431.564 578.391 420.249 578.672 417.911C580.653 402.282 580.148 386.438 577.177 370.967C575.962 364.702 570.543 356.66 570.636 350.488C570.636 346.373 574.28 341.885 576.429 338.238C581.661 329.073 587.174 319.161 591.098 309.623C597.078 295.034 600.722 278.576 603.338 262.959C604.74 254.824 606.328 245.94 606.702 237.711C606.982 231.445 606.515 224.806 607.356 218.353C603.899 218.727 598.947 220.504 595.864 218.54C591.939 216.109 590.818 209.189 591.379 204.981C577.831 207.319 578.298 194.507 579.139 184.408C554.659 184.408 585.959 148.031 589.884 140.176C591.659 136.622 591.659 140.643 590.818 135.033C590.444 132.601 588.763 129.889 587.828 127.645C585.773 122.782 583.53 117.92 581.194 113.15C576.158 103.118 570.51 93.4057 564.282 84.0677C558.74 87.9994 553.634 92.5138 549.053 97.5337C552.042 89.6785 561.199 80.0466 557.275 71.1628C553.631 62.9336 541.578 63.4947 534.383 64.9909C514.949 69.1055 496.355 75.0904 477.855 81.9169C483.554 85.1899 492.337 82.665 498.037 80.1402C505.045 77.0542 512.706 73.7812 520.275 72.098C526.908 70.6953 535.598 71.1628 533.729 80.0466C532.141 87.2472 525.133 94.2607 520.461 99.6845C510.183 111.561 497.289 120.819 484.582 130.076C470.941 139.989 457.86 150.743 444.031 160.375C419.084 177.768 392.362 192.918 366.574 209.095C353.212 217.512 338.076 224.338 323.5 230.604C307.522 237.524 292.199 244.818 275.661 250.241C266.504 253.234 257.348 255.759 248.285 259.219C242.585 261.37 232.774 265.671 229.037 259.312C221.469 246.314 248.939 229.294 256.507 221.346C261.739 226.395 236.044 245.192 238.1 252.579C239.688 258.377 245.762 250.896 248.752 249.306C253.517 246.781 259.123 245.472 263.888 242.573C273.699 236.588 285.285 229.762 287.527 217.418C285.939 215.735 286.032 214.239 287.621 212.836C288.355 212.017 288.926 211.064 289.303 210.031C289.882 207.911 290.319 205.756 290.611 203.578C291.732 197.5 288.929 191.795 291.545 185.904C276.409 197.406 261.926 210.311 247.537 222.748C234.643 233.877 221.188 248.465 216.517 265.11C215.956 267.261 214.928 269.692 215.022 271.937C215.208 276.332 215.676 275.397 219.226 276.799C222.777 278.202 227.916 278.108 231.746 278.202C233.895 278.295 243.613 275.958 241.744 280.727C240.623 283.439 233.895 283.345 231.466 283.626C225.393 284.28 222.123 283.626 225.019 290.172C226.327 293.071 228.943 295.128 230.999 297.372C236.699 303.731 239.782 313.457 244.267 320.844C249.406 329.354 255.012 337.396 260.898 345.345C263.328 348.618 266.598 354.696 270.055 357.034C273.232 359.185 269.494 358.998 274.82 358.156C277.156 357.782 279.212 356.286 281.454 355.725C294.628 352.545 308.176 348.898 321.818 344.971C339.197 339.921 357.51 335.619 374.142 328.325C388.998 321.779 403.761 314.018 418.804 307.378C423.195 305.414 427.587 304.199 431.044 300.645C435.155 296.344 438.612 290.733 442.35 286.151C448.797 278.295 454.776 270.347 461.691 262.866C466.83 257.348 476.08 247.062 483.368 244.818C497.289 240.609 489.815 261.744 488.039 267.167C491.31 267.915 492.991 263.707 496.822 264.923C501.401 266.326 501.868 272.498 502.428 276.332C502.615 277.36 501.214 279.231 501.587 280.166C501.774 280.446 504.764 282.223 505.325 283.065C507.38 286.057 507.007 289.704 506.259 292.884C502.148 309.529 487.572 321.686 476.827 334.03C481.592 333.094 485.236 330.383 489.721 328.98C494.019 327.671 498.224 327.764 502.522 327.39C507.007 327.016 511.305 325.333 515.883 325.239C520.835 324.959 525.413 326.361 530.179 326.923Z" fill="black"/>
<path fill-rule="evenodd" clip-rule="evenodd" d="M22.1713 177.114C19.5551 178.891 18.8076 180.574 18.7142 184.501C18.7142 186.185 18.8076 192.263 21.05 191.982C23.199 191.795 22.1713 179.171 22.1713 177.114ZM8.52971 187.026C9.74437 174.215 14.4161 161.216 25.4415 153.174C28.1511 151.21 31.2345 151.304 34.2244 149.995C35.9997 149.247 38.8962 145.787 40.8583 146.161C48.3331 147.657 39.7371 157.663 38.429 160.281C34.5047 168.417 34.785 175.524 34.8785 184.314C34.9719 190.954 36.3734 202.175 33.0097 208.254C29.4592 214.706 21.7041 210.498 17.3126 206.664C11.8934 201.988 7.78223 194.32 8.52971 187.026Z" fill="black"/>
<path fill-rule="evenodd" clip-rule="evenodd" d="M140.18 224.9C140.18 232.007 145.973 227.238 145.786 222.094C145.506 214.613 139.9 219.289 140.18 224.9ZM171.014 185.343C164.66 191.048 159.801 194.227 158.587 203.018C157.652 209.657 158.587 216.296 158.587 222.936C158.68 234.158 149.617 245.94 139.806 233.129C132.705 223.778 135.228 209.002 141.021 199.558C144.134 194.37 148.383 189.958 153.448 186.653C157.279 184.315 167.837 179.733 171.014 185.343Z" fill="black"/>
<path fill-rule="evenodd" clip-rule="evenodd" d="M82.3435 358.531C81.5961 360.307 79.9142 367.414 83.3713 365.731C86.5481 364.329 84.4925 359.653 82.3435 358.531ZM63.7499 336.555C63.1893 333.843 63.4696 317.104 68.0479 318.413C71.6919 319.442 72.2525 327.952 73.7475 330.944C79.2602 342.072 91.8739 348.992 96.172 360.494C101.031 373.306 86.3613 373.68 78.5127 368.537C69.356 362.365 64.0302 347.309 63.7499 336.555Z" fill="black"/>
<path fill-rule="evenodd" clip-rule="evenodd" d="M52.4442 267.823C54.4063 265.111 54.6866 263.708 53.472 261.277C52.0705 262.866 52.3508 265.111 52.4442 267.823ZM53.8457 279.886C43.381 281.101 42.9138 261.838 44.6891 255.198C46.3272 249.706 48.9209 244.546 52.3508 239.955C53.0048 239.114 58.9847 231.352 60.1993 231.259C64.7776 231.165 63.4696 236.308 63.0024 238.272C61.406 244.051 60.8057 250.059 61.2271 256.04C61.6943 263.147 65.058 280.166 53.8457 279.886Z" fill="black"/>
<path fill-rule="evenodd" clip-rule="evenodd" d="M527.936 113.15C512.987 125.681 498.878 139.241 482.62 150.182C474.678 155.512 466.362 160.281 458.42 165.705C454.445 168.513 450.223 170.954 445.807 172.999C441.882 174.776 439.266 175.056 442.536 170.755C444.685 167.856 449.638 165.892 452.627 163.835C457.206 160.749 461.597 157.195 466.362 154.483C474.865 149.621 483.368 145.6 491.216 139.615C498.224 134.284 505.418 129.048 512.052 123.437C514.949 121.099 524.386 109.877 527.936 113.15Z" fill="black"/>
<path fill-rule="evenodd" clip-rule="evenodd" d="M216.049 397.899C220.441 394.907 229.317 384.246 233.989 381.815C244.36 376.298 290.704 365.544 292.199 364.983C294.535 364.047 309.391 360.587 318.081 358.53C338.45 353.48 411.516 321.125 430.764 312.802C433.193 319.254 453.468 347.87 450.011 350.769C438.519 360.307 417.963 372.277 404.695 379.197C393.895 384.738 382.68 389.428 371.152 393.224C358.164 397.525 349.195 402.107 336.207 406.503C323.407 410.804 338.73 424.27 345.27 427.076C352.652 430.162 364.051 431.751 371.526 434.463C358.258 455.036 347.139 480.098 344.897 504.692C344.336 510.583 339.851 516.101 332.47 514.324C328.639 513.389 293.694 508.713 287.901 507.404C249.78 498.707 181.291 453.166 198.951 406.409C203.062 408.279 212.312 400.424 216.049 397.899Z" fill="#0048B1"/>
<path fill-rule="evenodd" clip-rule="evenodd" d="M528.217 158.412C534.944 164.116 518.126 179.92 514.295 183.473C510.277 187.214 505.792 190.58 501.401 193.947C499.812 195.162 491.403 203.018 489.254 202.363C485.05 201.147 490.562 196.004 492.057 194.695C496.729 190.393 501.494 186.185 506.073 181.79C510.184 177.769 514.669 174.122 518.593 170.007C521.863 166.547 524.573 160.936 528.217 158.412Z" fill="black"/>
<path fill-rule="evenodd" clip-rule="evenodd" d="M30.8607 390.045C29.0854 386.024 26.0021 390.512 27.5905 392.476C29.0854 394.44 30.5804 390.886 30.8607 390.045ZM20.5828 382.003C21.5172 376.018 23.6662 372.745 29.2723 377.794C33.1032 381.254 40.8583 391.26 40.1108 396.684C39.1764 403.791 31.3279 401.827 27.2167 398.087C23.1056 394.346 21.2369 387.333 20.5828 382.003Z" fill="black"/>
<path fill-rule="evenodd" clip-rule="evenodd" d="M32.8228 499.643C26.002 499.082 20.1156 493.845 17.2191 487.673C14.7898 482.436 12.4539 474.114 21.05 476.825C26.6561 478.602 48.3331 500.484 32.8228 499.643Z" fill="black"/>
<path fill-rule="evenodd" clip-rule="evenodd" d="M115.98 465.791C110.654 467.006 105.422 463.546 102.152 459.525C100.096 457.094 95.4244 448.491 97.7603 444.937C101.124 439.981 106.076 449.893 107.851 451.857C110.561 455.037 119.437 460.928 115.98 465.791Z" fill="black"/>
<path fill-rule="evenodd" clip-rule="evenodd" d="M120.839 331.412C116.728 329.448 112.803 327.11 111.122 322.528C110.094 319.629 109.159 310.745 113.925 310.839C119.344 310.839 131.864 330.477 120.839 331.412Z" fill="black"/>
<path fill-rule="evenodd" clip-rule="evenodd" d="M91.6871 239.768C97.2932 239.675 98.6013 242.761 99.3487 247.156C99.9094 250.148 102.432 260.341 99.8159 262.399C96.0785 265.391 90.0052 258.565 88.7906 255.853C86.1744 250.335 89.6315 244.912 91.6871 239.768Z" fill="black"/>
<path fill-rule="evenodd" clip-rule="evenodd" d="M187.271 544.716C189.981 545.932 196.148 548.644 193.812 552.945C191.382 557.434 184.281 553.039 181.665 551.169C180.544 550.327 173.536 544.997 173.817 543.22C174.471 539.386 184.094 544.342 187.271 544.716Z" fill="black"/>
<path fill-rule="evenodd" clip-rule="evenodd" d="M8.71653 267.355C10.5852 272.031 12.6408 287.928 2.92354 279.325C-0.0663839 276.706 -0.53356 273.433 0.494228 269.786C1.98919 264.549 4.1382 265.578 8.71653 267.355Z" fill="black"/>
<path fill-rule="evenodd" clip-rule="evenodd" d="M525.6 207.974C523.451 203.579 528.777 200.68 531.58 197.874C533.449 196.004 541.298 185.905 543.82 186.466C549.146 187.588 528.217 206.01 525.6 207.974Z" fill="black"/>
<path fill-rule="evenodd" clip-rule="evenodd" d="M91.5936 527.79C96.6391 526.949 97.8537 532.653 101.124 535.084C102.525 536.113 107.384 537.048 106.356 539.292C103.834 545.277 91.3133 531.811 91.5936 527.79Z" fill="black"/>
<path fill-rule="evenodd" clip-rule="evenodd" d="M134.574 394.253C138.031 392.757 148.216 400.705 145.226 404.072C140.928 409.122 134.761 396.965 134.574 394.253Z" fill="black"/>
<path fill-rule="evenodd" clip-rule="evenodd" d="M208.294 508.059C205.772 508.339 195.026 504.973 198.951 500.391C201.754 497.211 209.229 505.254 208.294 508.059Z" fill="black"/>
<path fill-rule="evenodd" clip-rule="evenodd" d="M79.4469 486.364C76.9242 487.392 67.7675 485.335 70.664 481.314C73.3736 477.574 79.4469 483.184 79.4469 486.364Z" fill="black"/>
<path fill-rule="evenodd" clip-rule="evenodd" d="M154.195 503.477C154.861 503.383 155.539 503.426 156.187 503.604C156.836 503.782 157.441 504.09 157.966 504.511C158.491 504.931 158.924 505.454 159.24 506.048C159.556 506.642 159.747 507.295 159.801 507.965C156.064 508.526 154.943 507.591 154.195 503.477Z" fill="black"/>
<path fill-rule="evenodd" clip-rule="evenodd" d="M843.561 337.958C844.121 340.015 843.28 340.389 840.944 338.986C841.785 338.612 842.72 338.238 843.561 337.958Z" fill="black"/>
<path fill-rule="evenodd" clip-rule="evenodd" d="M612.962 350.582C611.374 351.798 609.879 351.985 608.291 350.489C609.785 350.489 611.374 350.582 612.962 350.582Z" fill="black"/>
<path fill-rule="evenodd" clip-rule="evenodd" d="M577.924 191.141C577.924 192.731 577.831 194.227 577.831 195.817C577.924 194.227 577.924 192.637 577.924 191.141Z" fill="black"/>
<path fill-rule="evenodd" clip-rule="evenodd" d="M658.745 46.8488H654.074C655.581 46.2882 657.239 46.2882 658.745 46.8488Z" fill="black"/>
<path fill-rule="evenodd" clip-rule="evenodd" d="M201.847 27.7726C200.259 27.8661 198.764 27.9596 197.175 28.0531C198.67 27.9596 200.259 27.8661 201.847 27.7726Z" fill="black"/>
<path fill-rule="evenodd" clip-rule="evenodd" d="M240.156 28.0531C238.941 27.9596 237.633 27.8661 236.418 27.7726C237.633 27.8661 238.848 27.9596 240.156 28.0531Z" fill="black"/>
<path fill-rule="evenodd" clip-rule="evenodd" d="M260.712 29.5493C260.134 29.8488 259.493 30.0052 258.843 30.0052C258.192 30.0052 257.552 29.8488 256.974 29.5493H260.712Z" fill="black"/>
<path fill-rule="evenodd" clip-rule="evenodd" d="M149.523 32.1676C147.935 32.4482 146.44 32.8222 144.852 33.1028C146.347 32.7287 147.935 32.4482 149.523 32.1676Z" fill="black"/>
<path fill-rule="evenodd" clip-rule="evenodd" d="M578.859 412.769C578.859 413.704 578.765 414.639 578.765 415.574C578.859 414.639 578.859 413.704 578.859 412.769Z" fill="black"/>
<path fill-rule="evenodd" clip-rule="evenodd" d="M64.0302 337.022C64.0147 337.647 64.0459 338.273 64.1236 338.893C64.0482 338.272 64.0169 337.647 64.0302 337.022Z" fill="black"/>
<path fill-rule="evenodd" clip-rule="evenodd" d="M849.354 333.656H844.682C845.349 333.133 846.171 332.849 847.018 332.849C847.865 332.849 848.687 333.133 849.354 333.656Z" fill="black"/>
<path fill-rule="evenodd" clip-rule="evenodd" d="M529.805 327.017C528.59 326.83 527.282 326.643 526.068 326.362C527.282 326.643 528.497 326.83 529.805 327.017Z" fill="black"/>
<path fill-rule="evenodd" clip-rule="evenodd" d="M187.832 544.623C186.244 544.342 184.749 543.968 183.16 543.688L187.832 544.623Z" fill="black"/>
<path fill-rule="evenodd" clip-rule="evenodd" d="M502.242 276.239C502.242 275.304 502.148 274.368 502.148 273.433C502.242 274.368 502.242 275.304 502.242 276.239Z" fill="black"/>
<path fill-rule="evenodd" clip-rule="evenodd" d="M470.941 635.705C471.595 635.705 472.155 635.798 472.809 635.798C472.155 635.798 471.501 635.705 470.941 635.705Z" fill="black"/>
<path fill-rule="evenodd" clip-rule="evenodd" d="M669.024 47.6905C667.435 47.5971 665.94 47.5037 664.352 47.3168C665.847 47.5037 667.435 47.5971 669.024 47.6905Z" fill="black"/>
<path fill-rule="evenodd" clip-rule="evenodd" d="M618.008 236.028C618.008 237.618 618.101 239.114 618.101 240.704C618.101 239.114 618.101 237.524 618.008 236.028Z" fill="black"/>
<path fill-rule="evenodd" clip-rule="evenodd" d="M503.643 570.806C502.428 570.806 501.12 570.806 499.906 570.713C501.12 570.713 502.428 570.806 503.643 570.806Z" fill="black"/>
<path fill-rule="evenodd" clip-rule="evenodd" d="M636.321 75.371C638.19 75.1839 640.058 74.9969 641.927 74.7164C640.152 76.3061 638.19 75.2775 636.321 75.371Z" fill="black"/>
<path fill-rule="evenodd" clip-rule="evenodd" d="M461.037 587.639C461.037 589.229 461.13 590.725 461.224 592.314C461.13 590.725 461.13 589.135 461.037 587.639Z" fill="black"/>
<path fill-rule="evenodd" clip-rule="evenodd" d="M603.619 132.788C604.833 132.695 606.142 132.601 607.356 132.414C606.235 133.256 604.833 132.788 603.619 132.788Z" fill="black"/>
<path fill-rule="evenodd" clip-rule="evenodd" d="M195.307 381.535C196.521 381.722 197.83 382.003 199.044 382.19C197.736 382.003 196.521 381.722 195.307 381.535Z" fill="black"/>
<path fill-rule="evenodd" clip-rule="evenodd" d="M389.652 135.5C391.24 134.191 392.735 134.284 394.324 135.5H389.652Z" fill="black"/>
<path fill-rule="evenodd" clip-rule="evenodd" d="M331.162 182.725C331.162 182.07 331.255 181.509 331.255 180.855C331.268 181.48 331.237 182.105 331.162 182.725Z" fill="black"/>
<path fill-rule="evenodd" clip-rule="evenodd" d="M190.915 360.401C192.971 361.056 197.082 363.206 199.511 362.926C201.38 362.739 202.969 360.401 204.837 360.401C209.789 360.401 208.855 366.199 206.519 369.191C199.979 377.514 185.403 368.537 190.915 360.401Z" fill="black"/>
<path fill-rule="evenodd" clip-rule="evenodd" d="M211.191 330.476C217.918 332.253 214.554 347.122 208.855 348.151C202.128 349.366 201.006 337.209 202.314 332.814C205.772 334.872 203.623 342.166 208.014 340.202C210.724 338.893 210.35 332.908 211.191 330.476Z" fill="black"/>
</svg>
