<svg width="38" height="48" viewBox="0 0 38 48" fill="none" xmlns="http://www.w3.org/2000/svg">
<path d="M4.51937 47.5C3.25646 47.5 2.1875 47.0625 1.3125 46.1875C0.4375 45.3125 0 44.2435 0 42.9806V14.5194C0 13.2565 0.4375 12.1875 1.3125 11.3125C2.1875 10.4375 3.25646 10 4.51937 10H9.375V9.375C9.375 6.78542 10.29 4.57542 12.12 2.745C13.9504 0.914999 16.1604 0 18.75 0C21.3396 0 23.5496 0.914999 25.38 2.745C27.21 4.57542 28.125 6.78542 28.125 9.375V10H32.9806C34.2435 10 35.3125 10.4375 36.1875 11.3125C37.0625 12.1875 37.5 13.2565 37.5 14.5194V42.9806C37.5 44.2435 37.0625 45.3125 36.1875 46.1875C35.3125 47.0625 34.2435 47.5 32.9806 47.5H4.51937ZM4.51937 43.75H32.9806C33.1731 43.75 33.3494 43.6698 33.5094 43.5094C33.6698 43.3494 33.75 43.1731 33.75 42.9806V14.5194C33.75 14.3269 33.6698 14.1506 33.5094 13.9906C33.3494 13.8302 33.1731 13.75 32.9806 13.75H28.125V19.375C28.125 19.9071 27.9454 20.3525 27.5863 20.7113C27.2275 21.0704 26.7821 21.25 26.25 21.25C25.7179 21.25 25.2725 21.0704 24.9137 20.7113C24.5546 20.3525 24.375 19.9071 24.375 19.375V13.75H13.125V19.375C13.125 19.9071 12.9454 20.3525 12.5863 20.7113C12.2275 21.0704 11.7821 21.25 11.25 21.25C10.7179 21.25 10.2725 21.0704 9.91375 20.7113C9.55458 20.3525 9.375 19.9071 9.375 19.375V13.75H4.51937C4.32687 13.75 4.15063 13.8302 3.99063 13.9906C3.83021 14.1506 3.75 14.3269 3.75 14.5194V42.9806C3.75 43.1731 3.83021 43.3494 3.99063 43.5094C4.15063 43.6698 4.32687 43.75 4.51937 43.75ZM13.125 10H24.375V9.375C24.375 7.80792 23.8294 6.47854 22.7381 5.38688C21.6469 4.29563 20.3175 3.75 18.75 3.75C17.1825 3.75 15.8531 4.29563 14.7619 5.38688C13.6706 6.47854 13.125 7.80792 13.125 9.375V10Z" fill="#1C1B1F"/>
</svg>
