<svg width="200" height="201" viewBox="0 0 200 201" fill="none" xmlns="http://www.w3.org/2000/svg">
<path d="M100 200.221C155.228 200.221 200 155.4 200 100.111C200 44.821 155.228 0 100 0C44.7715 0 0 44.821 0 100.111C0 155.4 44.7715 200.221 100 200.221Z" fill="#0048B1"/>
<path d="M84.8069 52.8778C84.8069 47.8357 85.7371 43.5918 87.7703 39.6406C89.0461 37.1528 90.8667 35.0375 93.1391 33.481C94.654 32.4433 96.3417 31.4322 98.375 31.512C99.0793 31.5386 99.5843 31.7914 99.9431 32.3501C102.588 36.5541 103.478 41.0508 102.309 45.9332C101.764 48.1816 100.754 50.2037 99.6906 52.2126C97.551 56.2303 96.0361 60.4742 96.0494 65.0773C96.0494 67.0463 96.0361 69.0684 96.7404 70.9709C96.9796 71.6227 97.3517 72.3811 96.5411 72.8467C95.7305 73.3123 95.0261 72.5939 94.3883 72.2613C92.4481 71.2369 90.9464 69.6272 89.5643 67.9775C88.6341 66.86 87.8766 65.5562 87.2786 64.186C85.6308 60.3811 84.767 56.4166 84.8069 52.8645V52.8778Z" fill="white"/>
<path d="M103.159 31.9111C105.471 32.8557 107.518 34.1595 109.099 36.0885C112.182 39.8535 113.923 44.2171 114.415 49.0596C114.734 52.2259 114.667 55.339 113.976 58.4787C113.272 61.6716 112.129 64.6649 110.255 67.3124C108.674 69.5474 106.773 71.5429 104.195 72.7137C103.385 73.0862 102.494 73.1793 101.67 73.5119C100.421 73.9908 99.5309 72.8733 98.8133 71.0773C97.9362 68.8556 97.6305 66.5274 97.9362 64.186C98.2418 61.8179 98.5608 59.4632 99.5973 57.2015C101.099 53.9288 103.106 50.8423 103.983 47.3302C105.126 42.7537 105.019 38.1905 103.026 33.787C102.747 33.1883 102.308 32.4699 103.145 31.9111H103.159Z" fill="white"/>
<path d="M106.967 101.348C107.512 98.1949 108.482 95.3346 109.519 92.5142C109.559 92.4077 109.599 92.3013 109.652 92.1949C110.821 89.7071 110.608 89.1749 108.017 88.0707C107.206 87.7248 106.409 87.3523 105.612 86.9798C105.08 86.727 104.589 86.3412 104.535 85.7559C104.482 85.1705 105.014 84.8645 105.452 84.5186C108.549 82.0707 112.03 81.5785 115.778 82.4299C116.589 82.6029 117.04 82.0707 117.559 81.6317C120.854 78.798 124.27 76.2304 128.934 76.2969C129.692 76.2969 130.117 76.4699 130.25 77.3479C130.728 80.6206 130.316 83.8401 129.771 87.0596C129.08 91.0774 127.898 95.002 127.459 99.0729C127.379 99.7514 127.618 99.9643 128.283 100.151C130.648 100.802 132.947 101.72 135.326 102.279C138.276 102.958 141.04 102.279 143.618 100.337C143.725 101.534 142.834 101.986 142.223 102.386C139.379 104.248 136.349 104.221 133.187 103.157C130.476 102.252 127.751 101.388 124.974 100.762C123.047 100.323 121.08 100.882 119.193 101.414C116.907 102.053 114.675 102.851 112.376 103.437C109.293 104.235 106.595 103.077 104.004 101.507C100.894 99.6051 97.5719 99.5784 94.2231 100.683C92.655 101.202 91.1799 102.013 89.6118 102.558C86.5154 103.623 83.6184 102.598 81.0802 101.029C77.1733 98.6073 73.346 98.0884 69.1865 100.204C66.7679 101.441 64.3493 102.718 61.7447 103.543C60.6683 103.889 59.552 103.902 58.4224 103.809C58.1434 103.782 57.8111 103.769 57.7846 103.383C57.758 102.958 58.1301 102.944 58.3826 102.931C61.1998 102.758 63.6184 101.401 66.1168 100.284C67.2995 99.7514 67.2065 98.5541 67.5387 97.6095C68.3228 95.4543 69.4125 93.4853 70.9407 91.7825C71.8045 90.8246 71.2463 90.1993 70.6218 89.5474C69.944 88.8423 69.2397 88.1505 68.4955 87.512C68.0171 87.0995 68.1367 86.6871 68.4291 86.3146C70.3826 83.8667 73.7978 82.7492 77.1334 84.1328C78.4091 84.665 79.552 85.3302 80.7214 86.022C81.0271 86.1949 81.3327 86.288 81.6915 86.288C84.3228 86.2481 86.7015 87.0862 88.8543 88.5497C91.0736 90.0663 92.6018 92.1417 93.6517 94.5895C93.9307 95.2547 93.3726 95.441 92.9075 95.7204C91.6583 96.4787 90.1699 96.6782 88.9341 97.5297C87.8576 98.2747 87.14 99.2326 86.6882 100.363C86.2231 101.534 87.1932 101.521 87.8975 101.428C89.4656 101.241 90.8743 100.536 92.2962 99.8977C95.1533 98.6339 98.0105 97.9421 101.187 98.7669C102.927 99.2059 104.376 100.031 105.851 100.909C106.13 101.082 106.462 101.162 106.927 101.348H106.967ZM128.309 77.614C127.552 77.5608 126.795 77.614 126.01 77.8801C123.977 78.5719 122.05 79.4765 120.402 80.8734C119.366 81.7648 117.346 82.0574 118.343 84.5718C116.11 83.4011 114.024 83.0818 111.871 83.2548C109.705 83.4277 107.711 84.0796 105.984 85.8224C108.084 86.5408 109.864 87.4055 111.326 88.7226C112.761 90.0131 114.064 91.4898 114.17 93.6716C113.333 92.7536 112.509 91.8357 111.658 90.9044C110.13 93.0197 108.203 99.6849 108.456 101.827C109.426 102.066 110.422 102.013 111.419 101.96C114.595 101.787 117.24 99.8445 120.283 99.2459C120.695 99.166 120.695 98.7536 120.748 98.4077C120.961 97.1705 121.133 95.9199 121.426 94.696C122.476 90.2791 124.402 86.3279 127.751 83.1616C129.479 81.5253 129.838 80.2348 129.133 78.798C128.549 78.6384 128.349 79.5696 127.725 79.3302C127.393 78.5586 128.589 78.3856 128.309 77.614ZM69.4523 86.9133C71.0736 88.7492 73.0802 90.2658 73.7846 92.8468C73.1998 92.8734 73.0669 92.594 72.8942 92.3279C72.562 91.849 72.1766 91.7958 71.7912 92.288C70.9274 93.3789 70.0238 94.4565 69.439 95.7337C68.9872 96.7314 68.3095 97.676 68.3361 98.9665C68.6816 98.86 68.9075 98.8201 69.1068 98.727C71.7513 97.3966 74.4623 96.8379 77.3726 97.7425C77.8776 97.9022 78.4091 98.0352 78.9141 97.5962C81.3194 95.5208 84.1367 95.002 87.2198 95.4011C88.4689 95.5607 89.7845 96.2126 90.9806 95.135C90.9008 94.829 90.8211 94.5363 90.7547 94.2703C91.2065 93.8712 91.6583 94.5097 92.0703 94.1904C91.738 91.3434 85.5454 87.0596 82.7414 87.7647C82.7015 88.5364 83.5919 89.2148 83.0204 90.1461C81.1865 87.6982 78.8743 86.0353 76.0304 85.0109C73.9706 84.2659 70.4091 85.1705 69.4523 86.9133ZM126.502 99.5119C126.967 94.0175 128.841 88.8823 129.226 83.4011C126.143 84.4122 121.492 94.4831 121.851 99.1793C123.353 99.1793 124.854 99.1926 126.502 99.4986V99.5119ZM87.645 96.7181C84.5487 96.013 81.9174 96.5851 79.459 98.1949C79.4855 98.3013 79.459 98.4343 79.5121 98.4609C81.1865 99.5918 83.0071 100.456 84.9208 101.135C85.0138 101.175 85.253 101.068 85.2796 100.975C85.7447 99.4454 86.6085 98.1283 87.645 96.7181Z" fill="white"/>
<path d="M143.951 120.119C142.768 122.035 141.093 122.913 139.113 123.272C136.336 123.791 133.731 123.06 131.113 122.155C128.323 121.184 125.532 120.186 122.449 120.439C119.525 120.678 116.881 121.836 114.117 122.581C111.512 123.286 109.014 123.672 106.436 122.394C104.256 121.303 102.196 119.946 99.6583 119.587C96.8809 119.188 94.449 120.08 92.1101 121.197C89.5054 122.434 86.9407 122.793 84.1898 121.982C81.8642 121.29 79.9241 119.774 77.6516 118.949C75.5121 118.164 73.4124 118.23 71.2463 119.002C69.851 119.507 68.5353 120.133 67.2197 120.771C64.9872 121.849 62.7945 123.06 60.2696 123.392C59.2729 123.525 58.3559 123.392 57.3726 123.073C57.9307 122.248 58.7546 122.434 59.4324 122.341C62.4623 121.942 65.0005 120.346 67.645 119.029C70.8609 117.432 74.1832 116.155 77.7845 117.525C79.7779 118.27 81.5985 119.428 83.552 120.306C85.9174 121.357 88.3094 121.383 90.6616 120.213C94.449 118.323 98.3427 117.259 102.502 118.762C104.376 119.441 105.997 120.718 107.897 121.423C109.559 122.048 111.22 121.915 112.841 121.49C115.406 120.825 117.904 119.92 120.442 119.175C123.472 118.284 126.263 119.122 129.027 119.973C131.047 120.585 133 121.423 135.087 121.809C138.077 122.354 140.974 122.261 143.432 120.08C143.472 120.04 143.592 120.08 143.937 120.119H143.951Z" fill="white"/>
<path d="M143.804 110.102C143.419 111.166 142.515 111.765 141.678 112.257C138.608 114.067 135.459 113.481 132.296 112.443C130.05 111.712 127.791 110.98 125.505 110.381C123.127 109.769 120.828 110.488 118.555 111.113C116.004 111.818 113.532 112.856 110.861 113.135C108.801 113.348 107.007 112.683 105.266 111.605C101.439 109.277 97.4256 108.718 93.2129 110.661C90.3824 111.978 87.4721 113.202 84.3093 111.938C82.3824 111.166 80.5884 110.102 78.7013 109.237C75.8973 107.947 73.0402 108.08 70.2362 109.237C68.9339 109.769 67.698 110.435 66.4355 111.073C64.4688 112.071 62.4754 113.002 60.2694 113.321C59.3126 113.455 58.3558 113.481 57.2528 112.71C58.6614 112.417 59.7777 112.231 60.8541 111.938C62.9405 111.379 64.8408 110.381 66.7412 109.384C68.5618 108.439 70.4355 107.601 72.4555 107.082C76.1631 106.151 79.1399 107.787 82.1166 109.477C85.2129 111.233 88.3226 111.472 91.4986 109.796C93.1598 108.931 94.9007 108.253 96.7478 107.973C100.097 107.468 103.087 108.585 105.838 110.341C108.03 111.738 110.369 111.831 112.721 111.286C115.047 110.741 117.293 109.849 119.605 109.184C123.127 108.16 126.529 108.851 129.864 110.075C132.588 111.073 135.326 112.071 138.289 111.845C139.911 111.725 141.492 111.379 142.821 110.315C143.166 110.035 143.18 110.049 143.818 110.062L143.804 110.102Z" fill="white"/>
<path d="M131.818 105.738C131.193 106.098 130.648 106.005 130.077 105.659C126.289 103.384 122.303 102.572 118.09 104.275C116.841 104.781 115.579 105.26 114.329 105.765C113.638 106.044 113.08 105.738 112.482 105.26C113.386 104.781 114.396 104.927 115.286 104.448C118.914 102.492 122.741 101.548 126.781 103.024C128.469 103.636 130.05 104.541 131.658 105.326C131.751 105.366 131.751 105.579 131.818 105.725V105.738Z" fill="white"/>
<path d="M81.7181 113.109C83.2464 113.361 84.3494 113.987 85.6118 114.12C87.6583 114.319 89.4789 113.734 91.3261 113.002C93.7181 112.058 96.0437 110.674 98.7946 111.432C99.1401 111.525 99.5122 111.605 99.4058 112.071C99.3128 112.497 98.9142 112.43 98.6351 112.403C95.8444 112.071 93.4922 113.308 91.0072 114.279C88.1766 115.397 85.2264 115.876 82.4623 113.907C82.2497 113.76 82.1035 113.521 81.7181 113.109Z" fill="white"/>
<path d="M61.8243 105.818C62.4223 104.914 63.233 105.007 63.8177 104.634C66.4888 102.892 69.2263 101.229 72.3891 100.524C73.3459 100.311 74.4356 100.084 75.1134 101.215C74.9273 101.548 74.6881 101.548 74.4223 101.535C71.14 101.308 68.522 102.998 65.8111 104.488C64.6682 105.113 63.4988 105.858 61.8376 105.805L61.8243 105.818Z" fill="white"/>
<path d="M105.917 114.412C104.987 114.505 101.957 113.241 101.691 112.643C103.047 112.137 105.891 113.335 105.917 114.412Z" fill="white"/>
<path d="M122.874 83.2416C122.502 83.2017 122.197 83.0288 122.21 82.6163C122.236 82.0177 122.741 81.9379 123.18 81.8846C123.552 81.8447 123.791 82.0576 123.738 82.4567C123.672 82.9356 123.366 83.2017 122.874 83.2416Z" fill="white"/>
<path d="M88.2429 92.5142C88.2695 93.0197 88.0037 93.2193 87.6183 93.206C87.1798 93.206 86.8608 92.9931 86.8475 92.5009C86.8475 92.1018 87.0735 91.9421 87.4323 91.9421C87.8708 91.9421 88.203 92.1018 88.2429 92.5275V92.5142Z" fill="white"/>
<path d="M57.2998 149.444C57.2998 149.702 57.1475 149.831 56.8428 149.831H54.8301C54.6016 149.831 54.3555 149.752 54.0918 149.594C53.8281 149.43 53.623 149.233 53.4766 149.005L51.9297 146.553C51.5605 145.955 51.1885 145.507 50.8135 145.208C50.4385 144.903 49.9873 144.751 49.46 144.751H47.5703V149.022C47.5703 149.251 47.4883 149.444 47.3242 149.603C47.166 149.755 46.9727 149.831 46.7441 149.831H45.0918C44.8633 149.831 44.667 149.749 44.5029 149.585C44.3389 149.415 44.2568 149.216 44.2568 148.987V138.062C44.2568 137.834 44.3389 137.635 44.5029 137.465C44.667 137.295 44.8633 137.21 45.0918 137.21H46.7441C46.9727 137.21 47.166 137.295 47.3242 137.465C47.4883 137.635 47.5703 137.834 47.5703 138.062V142.272H49.46C49.9756 142.272 50.4268 142.132 50.8135 141.851C51.2061 141.569 51.5781 141.115 51.9297 140.488L53.292 138.062C53.6025 137.5 54.0244 137.216 54.5576 137.21H56.5879C56.8691 137.21 57.0098 137.333 57.0098 137.579C57.0098 137.714 56.96 137.875 56.8604 138.062L54.9531 141.517C54.6777 142.021 54.3672 142.437 54.0215 142.765C53.6816 143.093 53.2363 143.324 52.6855 143.459C53.0723 143.541 53.4678 143.784 53.8721 144.188C54.2822 144.593 54.6426 145.032 54.9531 145.507L57.1504 149.005C57.25 149.175 57.2998 149.321 57.2998 149.444ZM69.9297 148.53C68.7344 149.579 66.9766 150.104 64.6562 150.104C62.3418 150.104 60.584 149.579 59.3828 148.53C58.1816 147.476 57.5811 145.809 57.5811 143.529C57.5811 141.25 58.1816 139.586 59.3828 138.537C60.584 137.488 62.3418 136.964 64.6562 136.964C66.9766 136.964 68.7344 137.488 69.9297 138.537C71.1309 139.586 71.7314 141.25 71.7314 143.529C71.7314 145.809 71.1309 147.476 69.9297 148.53ZM67.5303 140.392C66.9385 139.688 65.9805 139.337 64.6562 139.337C63.3379 139.337 62.3799 139.688 61.7822 140.392C61.1904 141.095 60.8945 142.144 60.8945 143.538C60.8945 144.927 61.1904 145.973 61.7822 146.676C62.3799 147.373 63.3379 147.722 64.6562 147.722C65.9805 147.722 66.9385 147.373 67.5303 146.676C68.1221 145.973 68.418 144.927 68.418 143.538C68.418 142.144 68.1221 141.095 67.5303 140.392ZM79.1934 138.361V137.5C79.1934 137.271 79.2754 137.078 79.4395 136.92C79.6035 136.756 79.8057 136.674 80.0459 136.674H81.6631C81.9033 136.674 82.1025 136.756 82.2607 136.92C82.4248 137.078 82.5068 137.271 82.5068 137.5V138.361C84.5107 138.361 86.1045 138.774 87.2881 139.601C88.4717 140.421 89.0635 141.73 89.0635 143.529C89.0635 145.328 88.4717 146.641 87.2881 147.467C86.1045 148.287 84.5107 148.697 82.5068 148.697V149.559C82.5068 149.787 82.4219 149.98 82.252 150.139C82.0879 150.303 81.8916 150.385 81.6631 150.385H80.0459C79.8174 150.385 79.6182 150.303 79.4482 150.139C79.2783 149.98 79.1934 149.787 79.1934 149.559V148.697C77.1895 148.697 75.5957 148.287 74.4121 147.467C73.2344 146.641 72.6455 145.328 72.6455 143.529C72.6455 141.73 73.2344 140.421 74.4121 139.601C75.5957 138.774 77.1895 138.361 79.1934 138.361ZM79.29 146.324V140.743C78.2588 140.743 77.4443 140.975 76.8467 141.438C76.2549 141.895 75.959 142.592 75.959 143.529C75.959 144.467 76.2549 145.167 76.8467 145.63C77.4443 146.093 78.2588 146.324 79.29 146.324ZM82.4189 146.324C83.4502 146.324 84.2617 146.093 84.8535 145.63C85.4512 145.167 85.75 144.467 85.75 143.529C85.75 142.592 85.4512 141.895 84.8535 141.438C84.2617 140.975 83.4502 140.743 82.4189 140.743V146.324ZM90.6807 148.987V138.045C90.6807 137.816 90.7627 137.623 90.9268 137.465C91.0908 137.307 91.2871 137.228 91.5156 137.228H101.649C101.878 137.228 102.071 137.31 102.229 137.474C102.394 137.638 102.476 137.834 102.476 138.062V138.889C102.476 139.117 102.394 139.313 102.229 139.478C102.071 139.636 101.878 139.715 101.649 139.715H93.9941V142.272H100.586C100.814 142.272 101.008 142.354 101.166 142.519C101.33 142.677 101.412 142.87 101.412 143.099V143.925C101.412 144.153 101.33 144.35 101.166 144.514C101.008 144.672 100.814 144.751 100.586 144.751H93.9941V147.344H101.632C101.854 147.344 102.045 147.423 102.203 147.581C102.361 147.739 102.44 147.933 102.44 148.161V149.005C102.44 149.233 102.358 149.43 102.194 149.594C102.03 149.752 101.834 149.831 101.605 149.831H91.5156C91.2871 149.831 91.0908 149.752 90.9268 149.594C90.7627 149.43 90.6807 149.228 90.6807 148.987ZM110.403 149.022V138.062C110.403 137.822 110.482 137.623 110.641 137.465C110.799 137.307 110.998 137.228 111.238 137.228H121.135C121.363 137.228 121.557 137.31 121.715 137.474C121.879 137.638 121.961 137.834 121.961 138.062V138.889C121.961 139.117 121.882 139.313 121.724 139.478C121.571 139.636 121.381 139.715 121.152 139.715H113.717V141.842H118.059C119.482 141.842 120.637 142.179 121.521 142.853C122.406 143.521 122.849 144.517 122.849 145.841C122.849 147.159 122.406 148.155 121.521 148.829C120.637 149.497 119.482 149.831 118.059 149.831H111.194C110.972 149.831 110.784 149.755 110.632 149.603C110.479 149.444 110.403 149.251 110.403 149.022ZM113.717 147.344H118.059C119.043 147.344 119.535 146.84 119.535 145.832C119.535 144.824 119.043 144.32 118.059 144.32H113.717V147.344ZM124.642 149.005V138.062C124.642 137.834 124.721 137.638 124.879 137.474C125.037 137.31 125.23 137.228 125.459 137.228H132.165C135.71 137.228 137.482 138.862 137.482 142.132C137.482 145.396 135.71 147.027 132.165 147.027H127.955V149.005C127.955 149.233 127.873 149.43 127.709 149.594C127.551 149.752 127.357 149.831 127.129 149.831H125.477C125.248 149.831 125.052 149.752 124.888 149.594C124.724 149.43 124.642 149.233 124.642 149.005ZM127.955 144.54H131.163C132.147 144.54 132.895 144.376 133.404 144.048C133.914 143.714 134.169 143.075 134.169 142.132C134.169 141.183 133.914 140.544 133.404 140.216C132.895 139.882 132.147 139.715 131.163 139.715H127.955V144.54ZM139.108 149.005V138.062C139.108 137.822 139.188 137.623 139.346 137.465C139.504 137.307 139.703 137.228 139.943 137.228H141.49C141.719 137.228 141.912 137.307 142.07 137.465C142.234 137.623 142.316 137.816 142.316 138.045V146.843L147.317 138.062C147.452 137.834 147.637 137.638 147.871 137.474C148.105 137.31 148.322 137.228 148.521 137.228H151.114C151.343 137.228 151.536 137.31 151.694 137.474C151.853 137.638 151.932 137.834 151.932 138.062V149.005C151.932 149.233 151.85 149.43 151.686 149.594C151.521 149.752 151.325 149.831 151.097 149.831H149.55C149.321 149.831 149.125 149.752 148.961 149.594C148.803 149.43 148.724 149.233 148.724 149.005V140.849L144.136 149.005C144.001 149.233 143.811 149.43 143.564 149.594C143.318 149.752 143.081 149.831 142.853 149.831H139.943C139.715 149.831 139.519 149.752 139.354 149.594C139.19 149.43 139.108 149.233 139.108 149.005ZM153.646 146.395C153.646 146.049 153.748 145.8 153.953 145.647C154.158 145.495 154.357 145.419 154.551 145.419H155.588C156.127 145.419 156.549 145.744 156.854 146.395C157 146.705 157.246 146.954 157.592 147.142C157.938 147.329 158.321 147.423 158.743 147.423H161.494C162.133 147.423 162.61 147.32 162.927 147.115C163.243 146.91 163.401 146.562 163.401 146.069C163.401 145.577 163.243 145.229 162.927 145.023C162.61 144.818 162.133 144.716 161.494 144.716H159.227C158.998 144.716 158.802 144.637 158.638 144.479C158.479 144.314 158.4 144.118 158.4 143.89V143.169C158.4 142.952 158.477 142.762 158.629 142.598C158.787 142.428 158.975 142.343 159.191 142.343H161.169C161.878 142.343 162.396 142.237 162.725 142.026C163.059 141.815 163.226 141.473 163.226 140.998C163.226 140.518 163.059 140.172 162.725 139.961C162.396 139.75 161.878 139.645 161.169 139.645H159.033C158.084 139.645 157.428 140.005 157.064 140.726C156.801 141.276 156.405 141.552 155.878 141.552H154.832C154.551 141.552 154.331 141.449 154.173 141.244C154.015 141.039 153.936 140.816 153.936 140.576C153.936 139.58 154.439 138.763 155.447 138.124C156.455 137.479 157.548 137.157 158.726 137.157H161.424C164.834 137.157 166.539 138.44 166.539 141.007C166.539 142.073 166.135 142.914 165.326 143.529C166.252 144.104 166.715 144.95 166.715 146.069C166.715 147.423 166.29 148.401 165.44 149.005C164.597 149.603 163.384 149.901 161.802 149.901H158.436C157.246 149.901 156.15 149.576 155.148 148.926C154.146 148.27 153.646 147.426 153.646 146.395Z" fill="white"/>
</svg>
